<svg width="28" height="28" viewBox="0 0 28 28" fill="none" xmlns="http://www.w3.org/2000/svg">
<mask id="mask0_145_475" style="mask-type:alpha" maskUnits="userSpaceOnUse" x="0" y="0" width="28" height="28">
<rect width="28" height="28" fill="#D9D9D9"/>
</mask>
<g mask="url(#mask0_145_475)">
<path d="M19.3801 14.8749H6.125C5.87669 14.8749 5.66883 14.7911 5.50142 14.6235C5.33381 14.4561 5.25 14.2482 5.25 13.9999C5.25 13.7516 5.33381 13.5437 5.50142 13.3763C5.66883 13.2087 5.87669 13.1249 6.125 13.1249H19.3801L15.5391 9.28393C15.3657 9.11029 15.28 8.9072 15.2822 8.67464C15.2845 8.44208 15.3702 8.23529 15.5391 8.05427C15.7202 7.87343 15.928 7.78 16.1627 7.77397C16.3976 7.76795 16.6056 7.85545 16.7866 8.03647L22.0118 13.2617C22.1211 13.371 22.1981 13.4862 22.2428 13.6073C22.2877 13.7284 22.3102 13.8593 22.3102 13.9999C22.3102 14.1405 22.2877 14.2713 22.2428 14.3925C22.1981 14.5136 22.1211 14.6288 22.0118 14.7381L16.7866 19.9633C16.6129 20.1368 16.4069 20.2224 16.1685 20.2203C15.93 20.2179 15.7202 20.1263 15.5391 19.9455C15.3702 19.7645 15.2827 19.5595 15.2766 19.3307C15.2706 19.1018 15.3581 18.8969 15.5391 18.7158L19.3801 14.8749Z" fill="white"/>
</g>
</svg>
