<svg width="24" height="24" viewBox="0 0 24 24" fill="none" xmlns="http://www.w3.org/2000/svg">
<path d="M12 2.87195C14.7447 2.87195 17.048 4.76163 17.68 7.31095C17.7963 7.78019 18.177 8.14951 18.6442 8.27377C20.6276 8.80135 22.0888 10.6095 22.0888 12.7591C22.0888 15.0853 20.2906 17.055 18.0506 17.3592C18.1484 16.9218 18.2 16.4669 18.2 15.9999C18.2 12.5758 15.4242 9.79995 12 9.79995C8.57585 9.79995 5.80001 12.5758 5.80001 15.9999C5.80001 16.4666 5.85157 16.9213 5.94931 17.3585C3.73213 17.0523 1.91113 15.0904 1.91113 12.7591C1.91113 10.6095 3.37249 8.80135 5.35589 8.27377C5.82307 8.14951 6.20379 7.78019 6.32011 7.31095C6.95201 4.76163 9.25533 2.87195 12 2.87195Z" fill="white"/>
<path fill-rule="evenodd" clip-rule="evenodd" d="M6.78327 17.4C7.39993 19.7036 9.50187 21.4 12 21.4C14.4981 21.4 16.6001 19.7036 17.2167 17.4C17.3363 16.9535 17.4 16.4842 17.4 16C17.4 13.0176 14.9823 10.6 12 10.6C9.01767 10.6 6.60001 13.0176 6.60001 16C6.60001 16.4842 6.66373 16.9535 6.78327 17.4ZM11.6 13.8C11.6 13.5791 11.7791 13.4 12 13.4C12.2209 13.4 12.4 13.5791 12.4 13.8V17.2343L13.5172 16.1171C13.6734 15.9609 13.9266 15.9609 14.0828 16.1171C14.2391 16.2733 14.2391 16.5266 14.0828 16.6828L12.4243 18.3414C12.1899 18.5757 11.8101 18.5757 11.5757 18.3414L9.91717 16.6828C9.76095 16.5266 9.76095 16.2733 9.91717 16.1171C10.0734 15.9609 10.3266 15.9609 10.4828 16.1171L11.6 17.2343V13.8Z" fill="white"/>
</svg>
