<svg width="21" height="21" viewBox="0 0 21 21" fill="none" xmlns="http://www.w3.org/2000/svg">
<path fill-rule="evenodd" clip-rule="evenodd" d="M10.5038 1.31787C15.5771 1.31787 19.6914 5.43219 19.6914 10.5055C19.6914 15.5788 15.5771 19.6931 10.5038 19.6931C5.43054 19.6931 1.31622 15.5788 1.31622 10.5055C1.31622 5.43219 5.43054 1.31787 10.5038 1.31787ZM8.5959 13.4897L6.34655 11.2385C5.96334 10.855 5.96326 10.2297 6.34655 9.84638C6.72992 9.46309 7.35798 9.46549 7.73856 9.84638L9.32434 11.4334L13.2692 7.48852C13.6526 7.10515 14.2779 7.10515 14.6612 7.48852C15.0446 7.87181 15.0441 8.4977 14.6612 8.88053L10.0192 13.5225C9.6364 13.9054 9.0105 13.9059 8.62721 13.5225C8.61644 13.5118 8.60605 13.5008 8.5959 13.4897Z" fill="#24C070"/>
</svg>
