<svg width="105" height="103" viewBox="0 0 105 103" fill="none" xmlns="http://www.w3.org/2000/svg">
<path d="M52.5 94.4168C76.2022 94.4168 95.4167 75.2024 95.4167 51.5002C95.4167 27.7979 76.2022 8.5835 52.5 8.5835C28.7978 8.5835 9.58333 27.7979 9.58333 51.5002C9.58333 75.2024 28.7978 94.4168 52.5 94.4168Z" fill="url(#paint0_linear_132_4795)"/>
<path d="M102.081 55.5463L98.5534 47.8225C97.9757 46.5577 97.7738 45.1535 97.9717 43.7771L99.1801 35.3724C99.5843 32.5616 98.311 29.7735 95.9221 28.2383L88.7789 23.6476C87.6091 22.8959 86.6801 21.8237 86.1024 20.5589L82.5751 12.8351C81.3954 10.2521 78.817 8.59494 75.9773 8.59494H67.4861C66.0956 8.59494 64.7345 8.19526 63.5647 7.44351L56.4215 2.85285C54.0326 1.31761 50.9675 1.31761 48.5786 2.85285L41.4354 7.44344C40.2656 8.19519 38.9044 8.59487 37.5139 8.59487H29.0228C26.1831 8.59487 23.6046 10.252 22.4249 12.835L18.8976 20.5588C18.32 21.8237 17.391 22.8958 16.2212 23.6476L9.07793 28.2382C6.68907 29.7735 5.41576 32.5615 5.81992 35.3723L7.02832 43.7771C7.22623 45.1534 7.02432 46.5576 6.44667 47.8224L2.91933 55.5463C1.73969 58.1293 2.17593 61.1632 4.0355 63.3093L9.59603 69.7265C10.5066 70.7773 11.0959 72.0678 11.2938 73.4441L12.5022 81.8489C12.9064 84.6597 14.9136 86.9761 17.6382 87.7761L25.7854 90.1684C27.1196 90.5601 28.3131 91.3271 29.2237 92.378L34.7842 98.7952C36.6438 100.941 39.5847 101.805 42.3093 101.005L50.4566 98.6125C51.7907 98.2208 53.2094 98.2208 54.5435 98.6125L62.6907 101.005C65.4154 101.805 68.3563 100.941 70.2159 98.7952L75.7764 92.378C76.687 91.3271 77.8804 90.5601 79.2147 90.1684L87.3619 87.7761C90.0865 86.9761 92.0938 84.6597 92.4979 81.8489L93.7063 73.4441C93.9042 72.0678 94.4935 70.7773 95.4041 69.7265L100.965 63.3093C102.824 61.1632 103.26 58.1294 102.081 55.5463ZM52.5 92.9323C29.6176 92.9323 11.0678 74.3825 11.0678 51.5001C11.0678 28.6177 29.6176 10.0679 52.5 10.0679C75.3824 10.0679 93.9322 28.6177 93.9322 51.5001C93.9322 74.3825 75.3824 92.9323 52.5 92.9323Z" fill="url(#paint1_linear_132_4795)"/>
<path d="M103.774 55.6845L100.127 47.6967C99.5292 46.3887 99.3204 44.9365 99.525 43.5132L100.775 34.8213C101.193 31.9145 99.8759 29.0312 97.4054 27.4435L90.0182 22.696C88.8085 21.9185 87.8477 20.8098 87.2503 19.5017L83.6024 11.514C82.3825 8.84274 79.7159 7.12899 76.7793 7.12899H67.998C66.56 7.12899 65.1524 6.71568 63.9426 5.93822L56.5553 1.19075C54.0848 -0.396917 50.915 -0.396917 48.4446 1.19075L41.0573 5.93822C39.8476 6.71568 38.4399 7.12899 37.0019 7.12899H28.2207C25.2841 7.12899 22.6175 8.84267 21.3975 11.514L17.7497 19.5018C17.1523 20.8098 16.1916 21.9186 14.9818 22.6961L7.59456 27.4435C5.12404 29.0312 3.80726 31.9145 4.22525 34.8214L5.47495 43.5132C5.67957 44.9365 5.47082 46.3887 4.87343 47.6967L1.22557 55.6845C0.00564349 58.3557 0.456735 61.4933 2.37985 63.7127L8.13036 70.3491C9.07201 71.4358 9.68147 72.7703 9.88616 74.1937L11.1359 82.8856C11.5538 85.7924 13.6296 88.1879 16.4473 89.0153L24.8728 91.4893C26.2525 91.8944 27.4868 92.6876 28.4284 93.7744L34.1789 100.411C36.102 102.63 39.1434 103.523 41.9611 102.696L50.3866 100.222C51.7664 99.8168 53.2335 99.8168 54.6132 100.222L63.0387 102.696C65.8564 103.523 68.8978 102.63 70.8209 100.411L76.5714 93.7744C77.5131 92.6876 78.7473 91.8944 80.1271 91.4893L88.5526 89.0153C91.3703 88.1879 93.4461 85.7924 93.864 82.8856L95.1137 74.1937C95.3183 72.7704 95.9278 71.4359 96.8695 70.3491L102.62 63.7127C104.543 61.4933 104.994 58.3557 103.774 55.6845ZM52.5 94.3476C28.8359 94.3476 9.65237 75.1641 9.65237 51.5C9.65237 27.8359 28.8359 8.65236 52.5 8.65236C76.1641 8.65236 95.3476 27.8359 95.3476 51.5C95.3476 75.1641 76.1641 94.3476 52.5 94.3476Z" fill="url(#paint2_linear_132_4795)"/>
<path d="M103.024 55.6231L99.4297 47.7523C98.8411 46.4634 98.6354 45.0325 98.837 43.63L100.068 35.0653C100.48 32.201 99.1827 29.3599 96.7484 27.7954L89.4692 23.1174C88.2773 22.3513 87.3305 21.2588 86.7419 19.9698L83.1474 12.099C81.9453 9.46679 79.3177 7.77813 76.424 7.77813H67.7713C66.3543 7.77813 64.9672 7.37085 63.7752 6.60479L56.496 1.92677C54.0617 0.3623 50.9383 0.3623 48.5039 1.92677L41.2247 6.60479C40.0328 7.37085 38.6456 7.77813 37.2287 7.77813H28.576C25.6822 7.77813 23.0547 9.46679 21.8526 12.099L18.2581 19.9698C17.6695 21.2588 16.7228 22.3513 15.5308 23.1174L8.2516 27.7954C5.81723 29.3599 4.51971 32.201 4.93153 35.0653L6.16293 43.63C6.36456 45.0325 6.15886 46.4634 5.57022 47.7523L1.97574 55.6231C0.773647 58.2554 1.21816 61.347 3.11313 63.5339L8.77947 70.0732C9.70735 71.144 10.3079 72.459 10.5096 73.8616L11.741 82.4262C12.1528 85.2905 14.1982 87.651 16.9746 88.4663L25.2769 90.904C26.6365 91.3032 27.8526 92.0848 28.7805 93.1557L34.4469 99.695C36.3418 101.882 39.3387 102.762 42.1153 101.947L50.4175 99.5089C51.7771 99.1097 53.2228 99.1097 54.5823 99.5089L62.8845 101.947C65.661 102.762 68.6579 101.882 70.5529 99.695L76.2192 93.1557C77.1471 92.0848 78.3633 91.3032 79.7228 90.904L88.0251 88.4663C90.8016 87.651 92.847 85.2905 93.2588 82.4262L94.4902 73.8616C94.6918 72.459 95.2924 71.144 96.2203 70.0732L101.887 63.5339C103.782 61.347 104.226 58.2554 103.024 55.6231ZM52.5 93.7206C29.1821 93.7206 10.2793 74.8177 10.2793 51.4999C10.2793 28.1821 29.1821 9.27925 52.5 9.27925C75.8178 9.27925 94.7206 28.1821 94.7206 51.4999C94.7206 74.8178 75.8178 93.7206 52.5 93.7206Z" fill="url(#paint3_linear_132_4795)"/>
<path d="M52.5 12.2178C30.805 12.2178 13.2178 29.805 13.2178 51.5C13.2178 73.195 30.805 90.7822 52.5 90.7822C74.195 90.7822 91.7822 73.1949 91.7822 51.5C91.7822 29.8051 74.195 12.2178 52.5 12.2178ZM52.5 75.8716C39.0399 75.8716 28.1284 64.9601 28.1284 51.5C28.1284 38.0399 39.0399 27.1284 52.5 27.1284C65.9601 27.1284 76.8716 38.0399 76.8716 51.5C76.8716 64.9601 65.9601 75.8716 52.5 75.8716Z" fill="black"/>
<path d="M27.6841 27.4741L29.1889 30.1497C29.3924 30.5009 29.6339 30.8588 29.8497 31.2209L29.8234 31.251C29.4357 31.0854 29.0465 30.8965 28.6713 30.7417L25.797 29.6324L24.7396 30.8418L29.643 35.129L30.5124 34.1346L28.713 32.5613C28.235 32.1434 27.4433 31.609 26.9232 31.2464L26.9496 31.2163L28.452 31.8397L30.9377 32.7875L31.4757 32.1722L30.2034 29.8365L29.3947 28.4197L29.421 28.3896C29.8498 28.8566 30.4851 29.5699 30.9631 29.9879L32.7625 31.5612L33.645 30.5518L28.7417 26.2646L27.6841 27.4741Z" fill="white"/>
<path d="M32.9286 22.8572C31.4861 23.8597 31.1958 25.5475 32.4103 27.295C33.6247 29.0424 35.3401 29.4051 36.7826 28.4027C38.225 27.4002 38.4831 25.666 37.2686 23.9185C36.0589 22.1778 34.371 21.8547 32.9286 22.8572ZM36.057 27.3586C35.3273 27.8657 34.3947 27.5061 33.6494 26.4338C32.9042 25.3614 32.9245 24.4083 33.6542 23.9012C34.3838 23.3941 35.2842 23.7073 36.0294 24.7796C36.7747 25.852 36.7867 26.8515 36.057 27.3586Z" fill="white"/>
<path d="M40.9742 18.8249L41.8219 20.9643C42.1047 21.6781 42.5514 22.4827 42.8697 23.0977L42.8325 23.1124L41.7064 22.0194L38.933 19.6338L37.53 20.1896L39.9296 26.2452L41.2341 25.7283L40.3825 23.5792C40.0997 22.8653 39.6678 22.0979 39.3385 21.4556L39.3757 21.4408L40.4988 22.5262L43.2752 24.9196L44.6782 24.3637L42.2787 18.3081L40.9742 18.8249Z" fill="white"/>
<path d="M47.101 22.631L46.848 21.1518L49.037 20.7774L48.8287 19.56L46.6397 19.9345L46.4192 18.6452L48.9906 18.2054L48.7823 16.988L44.7594 17.6762L45.8577 24.0966L49.9791 23.3916L49.7709 22.1743L47.101 22.631Z" fill="white"/>
<path d="M53.4956 18.3618C53.309 18.8469 53.1159 19.2952 52.922 19.7966L52.882 19.796C52.7045 19.2886 52.5414 18.8344 52.3754 18.3437L51.818 16.8381L50.2433 16.8125L52.1373 21.0343L52.0996 23.3571L53.572 23.3811L53.6097 21.0584L55.6398 16.9003L54.1016 16.8753L53.4956 18.3618Z" fill="white"/>
<path d="M62.837 23.1703C63.0635 22.3304 62.6951 21.7233 62.0978 21.3832L62.1082 21.3446C62.6733 21.29 63.1507 20.7745 63.3029 20.2104C63.6268 19.0094 62.7098 18.3774 61.4044 18.0253L59.252 17.4448L57.556 23.7332L59.8878 24.3622C61.2555 24.731 62.4919 24.4496 62.837 23.1703ZM61.4719 22.7034C61.3176 23.2752 60.8428 23.443 60.0678 23.2339L59.2735 23.0197L59.7114 21.3961L60.5057 21.6103C61.2874 21.8212 61.6206 22.152 61.4719 22.7034ZM61.8563 20.0456C61.733 20.503 61.349 20.7123 60.6593 20.5262L59.9944 20.3468L60.3778 18.9251L61.053 19.1072C61.7155 19.2859 61.9869 19.5612 61.8563 20.0456Z" fill="white"/>
<path d="M62.2951 24.9825L63.6407 25.6581L64.6965 24.452L66.4715 25.3431L66.1334 26.9096L67.5263 27.6089L68.6208 20.8698L67.046 20.0791L62.2951 24.9825ZM67.3221 21.4641C67.1726 22.1495 66.9825 22.9159 66.8521 23.5791L66.7208 24.1877L65.4754 23.5624L65.8855 23.0938C66.3396 22.593 66.837 21.9901 67.2863 21.4461L67.3221 21.4641Z" fill="white"/>
<path d="M72.0218 28.9203C71.5584 28.9987 71.0644 28.9495 70.6413 28.6222C69.8883 28.0396 69.8717 27.043 70.6909 25.984C71.4899 24.951 72.5297 24.7597 73.2362 25.3062C73.6091 25.5947 73.7562 25.979 73.8283 26.4198L75.0203 26.1477C74.9482 25.5241 74.654 24.7956 73.9881 24.2805C72.6862 23.2733 70.7893 23.3904 69.4671 25.0997C68.1246 26.835 68.515 28.5847 69.8216 29.5954C70.4883 30.1112 71.2574 30.2931 72.0702 30.1264L72.0218 28.9203Z" fill="white"/>
<path d="M79.2056 29.6485L75.9219 29.9107L75.8982 29.883L77.9163 28.1484L76.9566 27.0317L72.017 31.277L72.9768 32.3938L74.3006 31.256L75.5592 31.1769L74.5043 34.1712L75.5569 35.3958L77.0047 31.076L80.2604 30.8759L79.2056 29.6485Z" fill="white"/>
<path d="M29.5879 74.9378L30.3734 75.6776L29.6023 76.4963C29.4006 76.4791 29.1572 76.3434 28.9673 76.1645C28.0748 75.3237 28.1667 74.3415 29.0847 73.3668C29.9801 72.4162 31.0387 72.3314 31.7685 73.0188C32.175 73.4017 32.2767 73.8011 32.3082 74.2393L33.5209 74.084C33.5047 73.4614 33.2925 72.7075 32.6044 72.0593C31.3385 70.8671 29.4341 70.795 27.9523 72.3681C26.448 73.9652 26.679 75.7557 27.985 76.986C28.6466 77.6092 29.4622 77.8975 30.0906 77.8854L32.1496 75.6993L30.4121 74.0627L29.5879 74.9378Z" fill="white"/>
<path d="M39.1976 76.8262L37.9837 76.09L36.0931 79.2071C35.4317 80.2976 34.8424 80.4558 34.2163 80.0761C33.593 79.6981 33.4781 79.1127 34.1395 78.0223L36.03 74.905L34.7709 74.1414L32.9584 77.1298C31.8243 78.9998 32.116 80.2893 33.5569 81.1632C34.9977 82.0371 36.251 81.6845 37.3851 79.8146L39.1976 76.8262Z" fill="white"/>
<path d="M37.0725 83.0327L38.4881 83.5452L39.3946 82.2233L41.262 82.8993L41.1107 84.4947L42.5761 85.0252L42.8697 78.2044L41.213 77.6047L37.0725 83.0327ZM41.65 78.9473C41.5823 79.6455 41.4838 80.4288 41.4323 81.1028L41.3735 81.7225L40.0632 81.2483L40.4155 80.7347C40.8073 80.1839 41.2303 79.5268 41.6125 78.9337L41.65 78.9473Z" fill="white"/>
<path d="M47.3244 79.2582L45.0073 78.8931L43.9935 85.3269L45.4481 85.5562L45.8129 83.2409L46.6128 83.3669L47.4764 85.8758L49.104 86.1323L48.0537 83.3296C48.79 83.1275 49.3429 82.599 49.492 81.6529C49.733 80.1233 48.6891 79.4732 47.3244 79.2582ZM48.0664 81.4284C47.9667 82.0611 47.5042 82.3237 46.739 82.2032L45.9948 82.086L46.2798 80.2771L47.024 80.3943C47.7892 80.5148 48.1667 80.7921 48.0664 81.4284Z" fill="white"/>
<path d="M51.7902 79.6122L49.95 86.187L51.4548 86.1398L51.8084 84.5763L53.7934 84.5139L54.2428 86.0522L55.8006 86.0033L53.5514 79.5569L51.7902 79.6122ZM52.0693 83.4231L52.2066 82.8156C52.3671 82.159 52.5171 81.392 52.6529 80.6995L52.6929 80.6982C52.8881 81.372 53.0862 82.1363 53.2875 82.7817L53.4621 83.3793L52.0693 83.4231Z" fill="white"/>
<path d="M59.3896 78.5931L59.9123 80.834C60.0867 81.5817 60.4096 82.4434 60.6337 83.0986L60.5947 83.1077L59.6424 81.8606L57.2515 79.0918L55.7819 79.4346L57.2614 85.7777L58.6279 85.459L58.1028 83.2078C57.9284 82.46 57.6145 81.6373 57.3838 80.9534L57.4227 80.9443L58.3733 82.1835L60.766 84.9603L62.2356 84.6175L60.7561 78.2744L59.3896 78.5931Z" fill="white"/>
<path d="M66.4188 77.1047L65.9053 75.9814L61.3047 78.084L61.8181 79.2073L63.4487 78.4621L65.6429 83.263L66.9824 82.6509L64.7881 77.8499L66.4188 77.1047Z" fill="white"/>
<path d="M70.6397 79.1231L69.7826 77.8914L71.6053 76.6229L70.8999 75.6091L69.0771 76.8776L68.3299 75.8041L70.4711 74.314L69.7657 73.3003L66.4157 75.6316L70.1364 80.9779L73.5684 78.5896L72.8629 77.5759L70.6397 79.1231Z" fill="white"/>
<path d="M77.2148 73.4286L75.2979 75.3425L74.2377 74.2805L75.8092 72.7114L74.9366 71.8374L73.365 73.4066L72.4409 72.4809L74.287 70.6377L73.4143 69.7637L70.526 72.6475L75.1285 77.257L78.0874 74.3026L77.2148 73.4286Z" fill="white"/>
<path d="M44.769 59.2949H43.1149V65.1131H44.8259C46.6697 65.1131 47.7926 64.1061 47.7926 62.1809C47.7926 60.2558 46.6697 59.2949 44.769 59.2949ZM44.6969 64.2768H44.2151V60.1312H44.6969C45.9451 60.1312 46.6621 60.7503 46.6621 62.1809C46.6621 63.6114 45.9451 64.2768 44.6969 64.2768Z" fill="black"/>
<path d="M52.0588 59.2949L50.0367 65.1131H51.1597L51.6445 63.5367H53.7251L54.2061 65.1131H55.3707L53.3487 59.2949H52.0588ZM51.8936 62.727L52.1119 62.0171C52.3092 61.4016 52.4913 60.7432 52.662 60.0991H52.7C52.8821 60.7379 53.0642 61.4016 53.2614 62.0171L53.4781 62.727H51.8936Z" fill="black"/>
<path d="M60.7392 59.2949L60.0639 60.7824C59.8837 61.2147 59.6883 61.6187 59.493 62.0617H59.455C59.2597 61.6187 59.0852 61.2147 58.9031 60.7824L58.2277 59.2949H57.0516L58.9182 62.9495V65.113H60.0184V62.9495L61.885 59.2949H60.7392Z" fill="black"/>
<path d="M24.7048 67.3232C22.0412 62.6891 20.5767 57.3967 20.4698 52.0181C20.3559 46.2909 21.7738 40.6402 24.5703 35.677L25.4519 36.1737C22.7441 40.9795 21.3711 46.4514 21.4814 51.998C21.585 57.2069 23.003 62.3319 25.582 66.8189L24.7048 67.3232Z" fill="white"/>
<path d="M80.3658 67.3232L79.4863 66.8229C82.0454 62.3244 83.4405 57.1932 83.521 51.9839C83.6066 46.4369 82.2095 40.9712 79.4804 36.1774L80.3598 35.6768C83.1783 40.6275 84.6213 46.2719 84.5328 51.9995C84.4497 57.3784 83.0088 62.6773 80.3658 67.3232Z" fill="white"/>
<path d="M46.7356 55.4844C46.0864 55.4793 45.4597 55.3437 44.8556 55.0777C44.2557 54.8117 43.7174 54.3793 43.2407 53.7807C42.764 53.1821 42.3859 52.3891 42.1065 51.4016C41.8312 50.4142 41.6935 49.2016 41.6935 47.7639C41.6976 46.4439 41.8189 45.2646 42.0572 44.226C42.2996 43.1823 42.6448 42.2972 43.0927 41.5707C43.5448 40.8442 44.0851 40.2916 44.7139 39.913C45.3426 39.5293 46.0473 39.3374 46.8281 39.3374C47.6705 39.3374 48.4143 39.5421 49.0595 39.9514C49.7046 40.3555 50.2224 40.9055 50.6128 41.6014C51.0073 42.2972 51.2456 43.0774 51.3278 43.9421H48.6958C48.593 43.3946 48.3773 42.9649 48.0486 42.6528C47.7198 42.3407 47.313 42.1846 46.8281 42.1846C46.0062 42.1846 45.3816 42.6297 44.9543 43.52C44.531 44.4102 44.3153 45.6202 44.307 47.15H44.3933C44.5824 46.6844 44.8371 46.2879 45.1577 45.9605C45.4823 45.6279 45.8501 45.3746 46.261 45.2007C46.6761 45.0216 47.1137 44.9321 47.5739 44.9321C48.3218 44.9321 48.9875 45.1521 49.5711 45.5921C50.1546 46.027 50.6148 46.6256 50.9518 47.3879C51.2887 48.1502 51.4572 49.0226 51.4572 50.0049C51.4572 51.0691 51.2579 52.0156 50.8593 52.8444C50.4648 53.6733 49.9121 54.323 49.2012 54.7937C48.4944 55.2593 47.6726 55.4896 46.7356 55.4844ZM46.7233 52.8751C47.1342 52.8751 47.502 52.7523 47.8267 52.5068C48.1513 52.2612 48.4061 51.9286 48.591 51.5091C48.7759 51.0895 48.8684 50.6188 48.8684 50.097C48.8684 49.5751 48.7759 49.107 48.591 48.6926C48.4102 48.2781 48.1595 47.9481 47.839 47.7026C47.5185 47.457 47.1527 47.3342 46.7418 47.3342C46.4336 47.3342 46.148 47.4058 45.885 47.5491C45.6261 47.6923 45.3981 47.8919 45.2008 48.1477C45.0077 48.4035 44.8556 48.7002 44.7447 49.0379C44.6337 49.3705 44.5783 49.726 44.5783 50.1047C44.5783 50.6112 44.6707 51.0742 44.8556 51.4937C45.0447 51.9133 45.2994 52.2484 45.62 52.4991C45.9446 52.7498 46.3124 52.8751 46.7233 52.8751Z" fill="black"/>
<path d="M58.2992 55.6149C57.239 55.6098 56.3268 55.2849 55.5624 54.6403C54.8022 53.9956 54.2166 53.0619 53.8057 51.8391C53.3989 50.6163 53.1975 49.1453 53.2016 47.4263C53.2016 45.7123 53.405 44.2516 53.8119 43.0442C54.2228 41.8367 54.8084 40.9183 55.5686 40.289C56.3329 39.6546 57.2431 39.3374 58.2992 39.3374C59.3553 39.3374 60.2635 39.6546 61.0237 40.289C61.788 40.9235 62.3756 41.8444 62.7866 43.0518C63.1975 44.2542 63.4009 45.7123 63.3968 47.4263C63.3968 49.1505 63.1913 50.624 62.7804 51.8468C62.3736 53.0696 61.7901 54.0033 61.0299 54.6479C60.2696 55.2926 59.3594 55.6149 58.2992 55.6149ZM58.2992 52.8598C59.0225 52.8598 59.5998 52.407 60.0313 51.5014C60.4628 50.5958 60.6764 49.2374 60.6723 47.4263C60.6723 46.2342 60.5737 45.2416 60.3765 44.4486C60.1833 43.6556 59.908 43.0595 59.5505 42.6604C59.1971 42.2614 58.78 42.0618 58.2992 42.0618C57.5801 42.0618 57.0048 42.5095 56.5733 43.4049C56.1418 44.3002 55.924 45.6407 55.9199 47.4263C55.9199 48.6337 56.0165 49.6416 56.2096 50.45C56.4069 51.2533 56.6843 51.857 57.0418 52.2612C57.3993 52.6602 57.8184 52.8598 58.2992 52.8598Z" fill="black"/>
<defs>
<linearGradient id="paint0_linear_132_4795" x1="22.1534" y1="81.8468" x2="81.9075" y2="22.0926" gradientUnits="userSpaceOnUse">
<stop stop-color="#C8A51A"/>
<stop offset="0.3198" stop-color="#FFEC51"/>
<stop offset="0.6802" stop-color="#B68B00"/>
<stop offset="1" stop-color="#FFF464"/>
</linearGradient>
<linearGradient id="paint1_linear_132_4795" x1="2.26378" y1="51.5001" x2="102.736" y2="51.5001" gradientUnits="userSpaceOnUse">
<stop stop-color="#B57E10"/>
<stop offset="0.0356" stop-color="#C6972B"/>
<stop offset="0.0886" stop-color="#DCB64E"/>
<stop offset="0.1389" stop-color="#ECCD67"/>
<stop offset="0.1847" stop-color="#F6DA76"/>
<stop offset="0.222" stop-color="#F9DF7B"/>
<stop offset="0.312" stop-color="#E5C35C"/>
<stop offset="0.5009" stop-color="#B57E10"/>
<stop offset="0.5434" stop-color="#B98417"/>
<stop offset="0.6045" stop-color="#C5952A"/>
<stop offset="0.6768" stop-color="#D9B249"/>
<stop offset="0.7573" stop-color="#F5D974"/>
<stop offset="0.7688" stop-color="#F9DF7B"/>
<stop offset="1" stop-color="#FFF3A6"/>
</linearGradient>
<linearGradient id="paint2_linear_132_4795" x1="0.547617" y1="51.5" x2="104.452" y2="51.5" gradientUnits="userSpaceOnUse">
<stop stop-color="#FFF464"/>
<stop offset="0.3198" stop-color="#B68B00"/>
<stop offset="0.6802" stop-color="#FFEC51"/>
<stop offset="1" stop-color="#D2A30E"/>
</linearGradient>
<linearGradient id="paint3_linear_132_4795" x1="1.30771" y1="51.4999" x2="103.692" y2="51.4999" gradientUnits="userSpaceOnUse">
<stop stop-color="#C8A51A"/>
<stop offset="0.3198" stop-color="#FFEC51"/>
<stop offset="0.6802" stop-color="#B68B00"/>
<stop offset="1" stop-color="#FFF464"/>
</linearGradient>
</defs>
</svg>
